# xmcd
#
# Track frame offsets: 
#        150
#        30380
#        60210
#        87470
#        118200
#        153462
#        181457
#        202590
#        234670
#        263960
#
# Disc length: 3788 seconds
#
# Revision: 0
# Processed by: cddbd v1.5.1PL0 Copyright (c) Steve Scherf et al.
# Submitted via: ExactAudioCopy v0.90b3
#
DISCID=7c0eca0a
DTITLE=Onslaught - The Force
DYEAR=1986
DGENRE=Thrash Metal
TTITLE0=Let There Be Death
TTITLE1=Metal Forces
TTITLE2=Fight With The Beast
TTITLE3=Demoniac
TTITLE4=Flame Of The Antichrist
TTITLE5=Contract In Blood
TTITLE6=Thrash Till The Death
TTITLE7=Let There Be Rock
TTITLE8=Metal Forces
TTITLE9=Power From Hell/Angels Of Death
EXTD=
EXTT0=
EXTT1=
EXTT2=
EXTT3=
EXTT4=
EXTT5=
EXTT6=
EXTT7=
EXTT8=
EXTT9=
PLAYORDER=
